<svg width="55" height="84" viewBox="0 0 55 84" fill="none" xmlns="http://www.w3.org/2000/svg">
<g id="Vector (Stroke)" filter="url(#filter0_d_267_18202)">
<mask id="path-1-inside-1_267_18202" fill="white">
<path fill-rule="evenodd" clip-rule="evenodd" d="M39.0608 10.5053L46.2853 2.91946L45.6243 2.21691L38.2202 10.025L37.197 9.48783C34.2338 7.93211 30.9842 7.01907 27.5 7.01907C24.0148 7.01907 20.7675 7.93254 17.8425 9.48469L16.8193 10.0277L9.37815 2.21436L8.71472 2.91947L15.9392 10.5053L14.5975 11.5336C9.12409 15.7283 5.52432 22.4776 5.52432 30.1744V32.1794H49.4757V30.1744C49.4757 22.4776 45.8759 15.7283 40.4025 11.5336L39.0608 10.5053ZM51 33.6994H4V30.1744C4 22.5615 7.31642 15.8039 12.4869 11.2949C12.8708 10.9602 13.2649 10.6378 13.6686 10.3284L6.61857 2.92579L9.37143 0L17.1264 8.14286C20.2486 6.48609 23.74 5.49907 27.5 5.49907C31.26 5.49907 34.7514 6.48609 37.9071 8.14286L45.6286 0L48.3814 2.92579L41.3314 10.3284C41.7351 10.6378 42.1292 10.9602 42.5131 11.2949C47.6836 15.8039 51 22.5615 51 30.1744V33.6994ZM5.52432 51.3247C5.52432 64.2021 15.4229 74.48 27.5 74.48C39.5771 74.48 49.4757 64.2021 49.4757 51.3247V38.7445H5.52432V51.3247ZM4 51.3247C4 64.9666 14.5079 76 27.5 76C40.4921 76 51 64.9666 51 51.3247V37.2245H4V51.3247ZM17.4286 28.1694C14.6671 28.1694 12.5471 25.8276 12.5471 23.1243C12.5471 20.421 14.6671 18.0793 17.4286 18.0793C20.1901 18.0793 22.31 20.421 22.31 23.1243C22.31 25.8276 20.1901 28.1694 17.4286 28.1694ZM37.5714 28.1694C34.8099 28.1694 32.69 25.8276 32.69 23.1243C32.69 20.421 34.8099 18.0793 37.5714 18.0793C40.3329 18.0793 42.4529 20.421 42.4529 23.1243C42.4529 25.8276 40.3329 28.1694 37.5714 28.1694ZM14.0714 23.1243C14.0714 25.0631 15.5821 26.6494 17.4286 26.6494C19.275 26.6494 20.7857 25.0631 20.7857 23.1243C20.7857 21.1855 19.275 19.5993 17.4286 19.5993C15.5821 19.5993 14.0714 21.1855 14.0714 23.1243ZM34.2143 23.1243C34.2143 25.0631 35.725 26.6494 37.5714 26.6494C39.4179 26.6494 40.9286 25.0631 40.9286 23.1243C40.9286 21.1855 39.4179 19.5993 37.5714 19.5993C35.725 19.5993 34.2143 21.1855 34.2143 23.1243Z"/>
</mask>
<path fill-rule="evenodd" clip-rule="evenodd" d="M39.0608 10.5053L46.2853 2.91946L45.6243 2.21691L38.2202 10.025L37.197 9.48783C34.2338 7.93211 30.9842 7.01907 27.5 7.01907C24.0148 7.01907 20.7675 7.93254 17.8425 9.48469L16.8193 10.0277L9.37815 2.21436L8.71472 2.91947L15.9392 10.5053L14.5975 11.5336C9.12409 15.7283 5.52432 22.4776 5.52432 30.1744V32.1794H49.4757V30.1744C49.4757 22.4776 45.8759 15.7283 40.4025 11.5336L39.0608 10.5053ZM51 33.6994H4V30.1744C4 22.5615 7.31642 15.8039 12.4869 11.2949C12.8708 10.9602 13.2649 10.6378 13.6686 10.3284L6.61857 2.92579L9.37143 0L17.1264 8.14286C20.2486 6.48609 23.74 5.49907 27.5 5.49907C31.26 5.49907 34.7514 6.48609 37.9071 8.14286L45.6286 0L48.3814 2.92579L41.3314 10.3284C41.7351 10.6378 42.1292 10.9602 42.5131 11.2949C47.6836 15.8039 51 22.5615 51 30.1744V33.6994ZM5.52432 51.3247C5.52432 64.2021 15.4229 74.48 27.5 74.48C39.5771 74.48 49.4757 64.2021 49.4757 51.3247V38.7445H5.52432V51.3247ZM4 51.3247C4 64.9666 14.5079 76 27.5 76C40.4921 76 51 64.9666 51 51.3247V37.2245H4V51.3247ZM17.4286 28.1694C14.6671 28.1694 12.5471 25.8276 12.5471 23.1243C12.5471 20.421 14.6671 18.0793 17.4286 18.0793C20.1901 18.0793 22.31 20.421 22.31 23.1243C22.31 25.8276 20.1901 28.1694 17.4286 28.1694ZM37.5714 28.1694C34.8099 28.1694 32.69 25.8276 32.69 23.1243C32.69 20.421 34.8099 18.0793 37.5714 18.0793C40.3329 18.0793 42.4529 20.421 42.4529 23.1243C42.4529 25.8276 40.3329 28.1694 37.5714 28.1694ZM14.0714 23.1243C14.0714 25.0631 15.5821 26.6494 17.4286 26.6494C19.275 26.6494 20.7857 25.0631 20.7857 23.1243C20.7857 21.1855 19.275 19.5993 17.4286 19.5993C15.5821 19.5993 14.0714 21.1855 14.0714 23.1243ZM34.2143 23.1243C34.2143 25.0631 35.725 26.6494 37.5714 26.6494C39.4179 26.6494 40.9286 25.0631 40.9286 23.1243C40.9286 21.1855 39.4179 19.5993 37.5714 19.5993C35.725 19.5993 34.2143 21.1855 34.2143 23.1243Z" fill="#243C64"/>
<path d="M39.0608 10.5053L37.6125 9.12597L36.077 10.7383L37.8442 12.0927L39.0608 10.5053ZM46.2853 2.91946L47.7336 4.29876L49.0392 2.92779L47.7419 1.54895L46.2853 2.91946ZM45.6243 2.21691L47.0809 0.846397L45.6299 -0.695692L44.173 0.840751L45.6243 2.21691ZM38.2202 10.025L37.2906 11.7958L38.6303 12.4992L39.6715 11.4012L38.2202 10.025ZM37.197 9.48783L38.1267 7.71704V7.71704L37.197 9.48783ZM17.8425 9.48469L18.78 11.2514H18.78L17.8425 9.48469ZM16.8193 10.0277L15.371 11.407L16.417 12.5053L17.7568 11.7943L16.8193 10.0277ZM9.37815 2.21436L10.8264 0.835059L9.36934 -0.694903L7.92154 0.843849L9.37815 2.21436ZM8.71472 2.91947L7.25811 1.54895L5.96077 2.9278L7.26643 4.29877L8.71472 2.91947ZM15.9392 10.5053L17.1558 12.0927L18.923 10.7383L17.3875 9.12597L15.9392 10.5053ZM14.5975 11.5336L15.8141 13.121L14.5975 11.5336ZM5.52432 32.1794H3.52432V34.1794H5.52432V32.1794ZM49.4757 32.1794V34.1794H51.4757V32.1794H49.4757ZM40.4025 11.5336L39.1859 13.121V13.121L40.4025 11.5336ZM51 33.6994V35.6994H53V33.6994H51ZM4 33.6994H2V35.6994H4V33.6994ZM12.4869 11.2949L13.8014 12.8023L13.8014 12.8023L12.4869 11.2949ZM13.6686 10.3284L14.8852 11.9158L16.6524 10.5614L15.1169 8.94908L13.6686 10.3284ZM6.61857 2.92579L5.16197 1.55528L3.86462 2.93412L5.17029 4.30509L6.61857 2.92579ZM9.37143 0L10.8197 -1.3793L9.36262 -2.90926L7.91482 -1.37051L9.37143 0ZM17.1264 8.14286L15.6781 9.52216L16.7241 10.6205L18.0639 9.90953L17.1264 8.14286ZM37.9071 8.14286L36.9775 9.91365L38.3172 10.617L39.3584 9.51902L37.9071 8.14286ZM45.6286 0L47.0852 -1.37051L45.6342 -2.91261L44.1773 -1.37616L45.6286 0ZM48.3814 2.92579L49.8297 4.30509L51.1354 2.93412L49.838 1.55528L48.3814 2.92579ZM41.3314 10.3284L39.8831 8.94909L38.3476 10.5614L40.1148 11.9158L41.3314 10.3284ZM42.5131 11.2949L41.1986 12.8023L41.1986 12.8023L42.5131 11.2949ZM49.4757 38.7445H51.4757V36.7445H49.4757V38.7445ZM5.52432 38.7445V36.7445H3.52432V38.7445H5.52432ZM51 37.2245H53V35.2245H51V37.2245ZM4 37.2245V35.2245H2V37.2245H4ZM44.1676 3.58742L44.8287 4.28998L47.7419 1.54895L47.0809 0.846397L44.1676 3.58742ZM36.2673 11.2586L37.2906 11.7958L39.1499 8.25425L38.1267 7.71704L36.2673 11.2586ZM27.5 9.01907C30.6236 9.01907 33.5564 9.83537 36.2673 11.2586L38.1267 7.71704C34.9111 6.02884 31.3449 5.01907 27.5 5.01907V9.01907ZM18.78 11.2514C21.4465 9.83638 24.3743 9.01907 27.5 9.01907V5.01907C23.6554 5.01907 20.0885 6.02871 16.905 7.71802L18.78 11.2514ZM17.7568 11.7943L18.78 11.2514L16.905 7.71802L15.8818 8.261L17.7568 11.7943ZM10.1713 4.28998L10.8348 3.58487L7.92154 0.843849L7.25811 1.54895L10.1713 4.28998ZM15.8141 13.121L17.1558 12.0927L14.7226 8.91784L13.3809 9.94613L15.8141 13.121ZM7.52432 30.1744C7.52432 23.1131 10.8238 16.9454 15.8141 13.121L13.3809 9.94613C7.42434 14.5112 3.52432 21.8421 3.52432 30.1744H7.52432ZM7.52432 32.1794V30.1744H3.52432V32.1794H7.52432ZM49.4757 30.1794H5.52432V34.1794H49.4757V30.1794ZM47.4757 30.1744V32.1794H51.4757V30.1744H47.4757ZM39.1859 13.121C44.1762 16.9454 47.4757 23.1131 47.4757 30.1744H51.4757C51.4757 21.8421 47.5757 14.5112 41.6191 9.94613L39.1859 13.121ZM37.8442 12.0927L39.1859 13.121L41.6191 9.94614L40.2774 8.91785L37.8442 12.0927ZM11.1724 9.78757C5.57671 14.6674 2 21.97 2 30.1744H6C6 23.1529 9.05613 16.9404 13.8014 12.8023L11.1724 9.78757ZM12.452 8.74096C12.0147 9.0761 11.5879 9.42518 11.1724 9.78757L13.8014 12.8023C14.1536 12.4951 14.515 12.1995 14.8852 11.9158L12.452 8.74096ZM27.5 3.49907C23.3805 3.49907 19.5695 4.58228 16.1889 6.37619L18.0639 9.90953C20.9276 8.38989 24.0995 7.49907 27.5 7.49907V3.49907ZM38.8368 6.37207C35.4288 4.58285 31.6207 3.49907 27.5 3.49907V7.49907C30.8993 7.49907 34.074 8.38932 36.9775 9.91365L38.8368 6.37207ZM43.8276 9.78757C43.4121 9.42518 42.9853 9.0761 42.548 8.74096L40.1148 11.9158C40.485 12.1995 40.8464 12.4951 41.1986 12.8023L43.8276 9.78757ZM53 30.1744C53 21.97 49.4233 14.6674 43.8276 9.78757L41.1986 12.8023C45.9439 16.9404 49 23.1529 49 30.1744H53ZM27.5 72.48C16.6164 72.48 7.52432 63.1886 7.52432 51.3247H3.52432C3.52432 65.2156 14.2294 76.48 27.5 76.48V72.48ZM47.4757 51.3247C47.4757 63.1886 38.3836 72.48 27.5 72.48V76.48C40.7705 76.48 51.4757 65.2156 51.4757 51.3247H47.4757ZM47.4757 38.7445V51.3247H51.4757V38.7445H47.4757ZM5.52432 40.7445H49.4757V36.7445H5.52432V40.7445ZM7.52432 51.3247V38.7445H3.52432V51.3247H7.52432ZM2 51.3247C2 65.9781 13.3124 78 27.5 78V74C15.7033 74 6 63.9551 6 51.3247H2ZM27.5 78C41.6876 78 53 65.9781 53 51.3247H49C49 63.9551 39.2967 74 27.5 74V78ZM10.5471 23.1243C10.5471 26.8299 13.4629 30.1694 17.4286 30.1694V26.1694C15.8712 26.1694 14.5471 24.8254 14.5471 23.1243H10.5471ZM17.4286 16.0793C13.4629 16.0793 10.5471 19.4187 10.5471 23.1243H14.5471C14.5471 21.4232 15.8712 20.0793 17.4286 20.0793V16.0793ZM24.31 23.1243C24.31 19.4187 21.3943 16.0793 17.4286 16.0793V20.0793C18.9859 20.0793 20.31 21.4232 20.31 23.1243H24.31ZM17.4286 30.1694C21.3943 30.1694 24.31 26.8299 24.31 23.1243H20.31C20.31 24.8254 18.9859 26.1694 17.4286 26.1694V30.1694ZM30.69 23.1243C30.69 26.8299 33.6057 30.1694 37.5714 30.1694V26.1694C36.0141 26.1694 34.69 24.8254 34.69 23.1243H30.69ZM37.5714 16.0793C33.6057 16.0793 30.69 19.4187 30.69 23.1243H34.69C34.69 21.4232 36.0141 20.0793 37.5714 20.0793V16.0793ZM44.4529 23.1243C44.4529 19.4187 41.5371 16.0793 37.5714 16.0793V20.0793C39.1288 20.0793 40.4529 21.4232 40.4529 23.1243H44.4529ZM37.5714 30.1694C41.5371 30.1694 44.4529 26.8299 44.4529 23.1243H40.4529C40.4529 24.8254 39.1288 26.1694 37.5714 26.1694V30.1694ZM17.4286 24.6494C16.7776 24.6494 16.0714 24.0516 16.0714 23.1243H12.0714C12.0714 26.0746 14.3867 28.6494 17.4286 28.6494V24.6494ZM18.7857 23.1243C18.7857 24.0516 18.0796 24.6494 17.4286 24.6494V28.6494C20.4704 28.6494 22.7857 26.0745 22.7857 23.1243H18.7857ZM17.4286 21.5993C18.0796 21.5993 18.7857 22.197 18.7857 23.1243H22.7857C22.7857 20.1741 20.4704 17.5993 17.4286 17.5993V21.5993ZM16.0714 23.1243C16.0714 22.197 16.7776 21.5993 17.4286 21.5993V17.5993C14.3867 17.5993 12.0714 20.1741 12.0714 23.1243H16.0714ZM37.5714 24.6494C36.9204 24.6494 36.2143 24.0516 36.2143 23.1243H32.2143C32.2143 26.0745 34.5296 28.6494 37.5714 28.6494V24.6494ZM38.9286 23.1243C38.9286 24.0516 38.2224 24.6494 37.5714 24.6494V28.6494C40.6133 28.6494 42.9286 26.0746 42.9286 23.1243H38.9286ZM37.5714 21.5993C38.2224 21.5993 38.9286 22.197 38.9286 23.1243H42.9286C42.9286 20.1741 40.6133 17.5993 37.5714 17.5993V21.5993ZM36.2143 23.1243C36.2143 22.197 36.9204 21.5993 37.5714 21.5993V17.5993C34.5296 17.5993 32.2143 20.1741 32.2143 23.1243H36.2143ZM44.837 1.54016L37.6125 9.12597L40.5091 11.8846L47.7336 4.29876L44.837 1.54016ZM39.6715 11.4012L47.0755 3.59307L44.173 0.840751L36.769 8.64888L39.6715 11.4012ZM7.92986 3.59366L15.371 11.407L18.2676 8.64837L10.8264 0.835059L7.92986 3.59366ZM17.3875 9.12597L10.163 1.54016L7.26643 4.29877L14.4909 11.8846L17.3875 9.12597ZM53 33.6994V30.1744H49V33.6994H53ZM4 35.6994H51V31.6994H4V35.6994ZM2 30.1744V33.6994H6V30.1744H2ZM5.17029 4.30509L12.2203 11.7077L15.1169 8.94908L8.06686 1.54649L5.17029 4.30509ZM7.91482 -1.37051L5.16197 1.55528L8.07518 4.2963L10.828 1.37051L7.91482 -1.37051ZM18.5747 6.76356L10.8197 -1.3793L7.92314 1.3793L15.6781 9.52216L18.5747 6.76356ZM44.1773 -1.37616L36.4559 6.7667L39.3584 9.51902L47.0798 1.37616L44.1773 -1.37616ZM49.838 1.55528L47.0852 -1.37051L44.172 1.37051L46.9248 4.2963L49.838 1.55528ZM42.7797 11.7077L49.8297 4.30509L46.9331 1.54649L39.8831 8.94909L42.7797 11.7077ZM2 37.2245V51.3247H6V37.2245H2ZM53 51.3247V37.2245H49V51.3247H53ZM51 35.2245H4V39.2245H51V35.2245Z" fill="black" mask="url(#path-1-inside-1_267_18202)"/>
</g>
<defs>
<filter id="filter0_d_267_18202" x="0" y="0" width="55" height="84" filterUnits="userSpaceOnUse" color-interpolation-filters="sRGB">
<feFlood flood-opacity="0" result="BackgroundImageFix"/>
<feColorMatrix in="SourceAlpha" type="matrix" values="0 0 0 0 0 0 0 0 0 0 0 0 0 0 0 0 0 0 127 0" result="hardAlpha"/>
<feOffset dy="4"/>
<feGaussianBlur stdDeviation="2"/>
<feComposite in2="hardAlpha" operator="out"/>
<feColorMatrix type="matrix" values="0 0 0 0 0 0 0 0 0 0 0 0 0 0 0 0 0 0 0.25 0"/>
<feBlend mode="normal" in2="BackgroundImageFix" result="effect1_dropShadow_267_18202"/>
<feBlend mode="normal" in="SourceGraphic" in2="effect1_dropShadow_267_18202" result="shape"/>
</filter>
</defs>
</svg>
